<mxfile host="app.diagrams.net" modified="2022-02-11T21:46:21.715Z" agent="5.0 (Windows NT 10.0; Win64; x64) AppleWebKit/537.36 (KHTML, like Gecko) Chrome/97.0.4692.71 Safari/537.36 Edg/97.0.1072.62" etag="GexvjMJJ1YvmcsyJoY_X" version="16.2.4" type="github">
  <diagram id="w-lfwDUIJT0jTFFxMKSL" name="Page-1">
    <mxGraphModel dx="1422" dy="762" grid="1" gridSize="10" guides="1" tooltips="1" connect="1" arrows="1" fold="1" page="1" pageScale="1" pageWidth="827" pageHeight="1169" math="0" shadow="0">
      <root>
        <mxCell id="0" />
        <mxCell id="1" parent="0" />
        <mxCell id="FjR-XkZwSWkzs6hYQ35B-1" value="download" style="html=1;shadow=0;dashed=0;shape=mxgraph.bootstrap.rrect;rSize=5;strokeColor=none;strokeWidth=1;fillColor=#6C767D;fontColor=#FFFFFF;whiteSpace=wrap;align=center;verticalAlign=middle;spacingLeft=0;fontStyle=0;fontSize=14;spacing=5;fontFamily=Helvetica;" vertex="1" parent="1">
          <mxGeometry x="10" y="41" width="70" height="20" as="geometry" />
        </mxCell>
        <mxCell id="FjR-XkZwSWkzs6hYQ35B-2" value="duplicate" style="html=1;shadow=0;dashed=0;shape=mxgraph.bootstrap.rrect;rSize=5;strokeColor=none;strokeWidth=1;fillColor=#6C767D;fontColor=#FFFFFF;whiteSpace=wrap;align=center;verticalAlign=middle;spacingLeft=0;fontStyle=0;fontSize=14;spacing=5;fontFamily=Helvetica;" vertex="1" parent="1">
          <mxGeometry x="10" y="67" width="70" height="20" as="geometry" />
        </mxCell>
        <mxCell id="FjR-XkZwSWkzs6hYQ35B-3" value="&amp;lt;Attribute_1&amp;gt;" style="html=1;fillColor=none;strokeColor=none;fontSize=14;align=left;fontColor=#596780;whiteSpace=wrap;sketch=1;hachureGap=4;pointerEvents=0;fontFamily=Helvetica;fontStyle=1" vertex="1" parent="1">
          <mxGeometry x="120" y="41" width="100" height="20" as="geometry" />
        </mxCell>
        <mxCell id="FjR-XkZwSWkzs6hYQ35B-4" value="" style="shape=line;strokeWidth=2;html=1;strokeColor=#DFE1E5;resizeWidth=1;sketch=1;hachureGap=4;pointerEvents=0;fontFamily=Helvetica;fontSize=14;" vertex="1" parent="1">
          <mxGeometry x="121" y="61" width="619" height="10" as="geometry" />
        </mxCell>
        <mxCell id="FjR-XkZwSWkzs6hYQ35B-5" value="&amp;lt;val_1.1&amp;gt;" style="strokeColor=none;fillColor=none;fontSize=14;fontColor=#596780;align=left;html=1;sketch=1;hachureGap=4;pointerEvents=0;fontFamily=Helvetica;" vertex="1" parent="1">
          <mxGeometry x="129.5" y="71" width="81" height="20" as="geometry" />
        </mxCell>
        <mxCell id="FjR-XkZwSWkzs6hYQ35B-6" value="&amp;lt;val_1.2&amp;gt;" style="strokeColor=none;fillColor=none;fontSize=14;fontColor=#596780;align=left;html=1;sketch=1;hachureGap=4;pointerEvents=0;fontFamily=Helvetica;" vertex="1" parent="1">
          <mxGeometry x="129.5" y="101" width="81" height="20" as="geometry" />
        </mxCell>
        <mxCell id="FjR-XkZwSWkzs6hYQ35B-7" value="&amp;lt;val_1.3&amp;gt;" style="strokeColor=none;fillColor=none;fontSize=14;fontColor=#596780;align=left;html=1;sketch=1;hachureGap=4;pointerEvents=0;fontFamily=Helvetica;" vertex="1" parent="1">
          <mxGeometry x="129.5" y="131" width="81" height="20" as="geometry" />
        </mxCell>
        <mxCell id="FjR-XkZwSWkzs6hYQ35B-8" value="&amp;lt;val_2.1&amp;gt;" style="strokeColor=none;fillColor=none;fontSize=14;fontColor=#596780;align=left;html=1;sketch=1;hachureGap=4;pointerEvents=0;fontFamily=Helvetica;" vertex="1" parent="1">
          <mxGeometry x="290" y="71" width="80" height="20" as="geometry" />
        </mxCell>
        <mxCell id="FjR-XkZwSWkzs6hYQ35B-9" value="&amp;lt;val_2.2&amp;gt;" style="strokeColor=none;fillColor=none;fontSize=14;fontColor=#596780;align=left;html=1;sketch=1;hachureGap=4;pointerEvents=0;fontFamily=Helvetica;" vertex="1" parent="1">
          <mxGeometry x="290" y="102" width="80" height="20" as="geometry" />
        </mxCell>
        <mxCell id="FjR-XkZwSWkzs6hYQ35B-10" value="&amp;lt;val_2.3&amp;gt;" style="strokeColor=none;fillColor=none;fontSize=14;fontColor=#596780;align=left;html=1;sketch=1;hachureGap=4;pointerEvents=0;fontFamily=Helvetica;" vertex="1" parent="1">
          <mxGeometry x="290" y="132" width="80" height="20" as="geometry" />
        </mxCell>
        <mxCell id="FjR-XkZwSWkzs6hYQ35B-11" value="" style="rounded=1;arcSize=23;fillColor=#42526E;strokeColor=none;sketch=0;hachureGap=4;pointerEvents=0;fontFamily=Helvetica;fontSize=14;" vertex="1" parent="1">
          <mxGeometry x="139.5" y="174" width="40" height="10" as="geometry" />
        </mxCell>
        <mxCell id="FjR-XkZwSWkzs6hYQ35B-12" value="" style="shape=ellipse;fillColor=#ffffff;strokeColor=none;html=1;sketch=0;hachureGap=4;pointerEvents=0;fontFamily=Helvetica;fontSize=14;" vertex="1" parent="FjR-XkZwSWkzs6hYQ35B-11">
          <mxGeometry x="0.5" y="0.5" width="4" height="4" relative="1" as="geometry">
            <mxPoint x="-10" y="-2" as="offset" />
          </mxGeometry>
        </mxCell>
        <mxCell id="FjR-XkZwSWkzs6hYQ35B-13" value="" style="shape=ellipse;fillColor=#ffffff;strokeColor=none;html=1;sketch=0;hachureGap=4;pointerEvents=0;fontFamily=Helvetica;fontSize=14;" vertex="1" parent="FjR-XkZwSWkzs6hYQ35B-11">
          <mxGeometry x="0.5" y="0.5" width="4" height="4" relative="1" as="geometry">
            <mxPoint x="-2" y="-2" as="offset" />
          </mxGeometry>
        </mxCell>
        <mxCell id="FjR-XkZwSWkzs6hYQ35B-14" value="" style="shape=ellipse;fillColor=#ffffff;strokeColor=none;html=1;sketch=0;hachureGap=4;pointerEvents=0;fontFamily=Helvetica;fontSize=14;" vertex="1" parent="FjR-XkZwSWkzs6hYQ35B-11">
          <mxGeometry x="0.5" y="0.5" width="4" height="4" relative="1" as="geometry">
            <mxPoint x="6" y="-2" as="offset" />
          </mxGeometry>
        </mxCell>
        <mxCell id="FjR-XkZwSWkzs6hYQ35B-15" value="" style="shape=line;strokeWidth=2;html=1;strokeColor=#DFE1E5;resizeWidth=1;sketch=1;hachureGap=4;pointerEvents=0;fontFamily=Helvetica;fontSize=14;" vertex="1" parent="1">
          <mxGeometry x="119" y="210" width="619" height="10" as="geometry" />
        </mxCell>
        <mxCell id="FjR-XkZwSWkzs6hYQ35B-16" value="&amp;lt;Attribute_2&amp;gt;" style="html=1;fillColor=none;strokeColor=none;fontSize=14;align=left;fontColor=#596780;whiteSpace=wrap;sketch=1;hachureGap=4;pointerEvents=0;fontFamily=Helvetica;fontStyle=1" vertex="1" parent="1">
          <mxGeometry x="280" y="41" width="100" height="20" as="geometry" />
        </mxCell>
        <mxCell id="FjR-XkZwSWkzs6hYQ35B-17" value="&amp;lt;Attribute_3&amp;gt;" style="html=1;fillColor=none;strokeColor=none;fontSize=14;align=left;fontColor=#596780;whiteSpace=wrap;sketch=1;hachureGap=4;pointerEvents=0;fontFamily=Helvetica;fontStyle=1" vertex="1" parent="1">
          <mxGeometry x="440" y="41" width="100" height="20" as="geometry" />
        </mxCell>
        <mxCell id="FjR-XkZwSWkzs6hYQ35B-19" value="&amp;lt;val_3.1&amp;gt;" style="strokeColor=none;fillColor=none;fontSize=14;fontColor=#596780;align=left;html=1;sketch=1;hachureGap=4;pointerEvents=0;fontFamily=Helvetica;" vertex="1" parent="1">
          <mxGeometry x="450" y="71" width="80" height="20" as="geometry" />
        </mxCell>
        <mxCell id="FjR-XkZwSWkzs6hYQ35B-20" value="&amp;lt;val_3.2&amp;gt;" style="strokeColor=none;fillColor=none;fontSize=14;fontColor=#596780;align=left;html=1;sketch=1;hachureGap=4;pointerEvents=0;fontFamily=Helvetica;" vertex="1" parent="1">
          <mxGeometry x="450" y="102" width="80" height="20" as="geometry" />
        </mxCell>
        <mxCell id="FjR-XkZwSWkzs6hYQ35B-21" value="&amp;lt;val_3.3&amp;gt;" style="strokeColor=none;fillColor=none;fontSize=14;fontColor=#596780;align=left;html=1;sketch=1;hachureGap=4;pointerEvents=0;fontFamily=Helvetica;" vertex="1" parent="1">
          <mxGeometry x="450" y="132" width="80" height="20" as="geometry" />
        </mxCell>
        <mxCell id="FjR-XkZwSWkzs6hYQ35B-22" value="" style="rounded=1;arcSize=23;fillColor=#42526E;strokeColor=none;sketch=0;hachureGap=4;pointerEvents=0;fontFamily=Helvetica;fontSize=14;" vertex="1" parent="1">
          <mxGeometry x="600" y="46" width="40" height="10" as="geometry" />
        </mxCell>
        <mxCell id="FjR-XkZwSWkzs6hYQ35B-23" value="" style="shape=ellipse;fillColor=#ffffff;strokeColor=none;html=1;sketch=0;hachureGap=4;pointerEvents=0;fontFamily=Helvetica;fontSize=14;" vertex="1" parent="FjR-XkZwSWkzs6hYQ35B-22">
          <mxGeometry x="0.5" y="0.5" width="4" height="4" relative="1" as="geometry">
            <mxPoint x="-10" y="-2" as="offset" />
          </mxGeometry>
        </mxCell>
        <mxCell id="FjR-XkZwSWkzs6hYQ35B-24" value="" style="shape=ellipse;fillColor=#ffffff;strokeColor=none;html=1;sketch=0;hachureGap=4;pointerEvents=0;fontFamily=Helvetica;fontSize=14;" vertex="1" parent="FjR-XkZwSWkzs6hYQ35B-22">
          <mxGeometry x="0.5" y="0.5" width="4" height="4" relative="1" as="geometry">
            <mxPoint x="-2" y="-2" as="offset" />
          </mxGeometry>
        </mxCell>
        <mxCell id="FjR-XkZwSWkzs6hYQ35B-25" value="" style="shape=ellipse;fillColor=#ffffff;strokeColor=none;html=1;sketch=0;hachureGap=4;pointerEvents=0;fontFamily=Helvetica;fontSize=14;" vertex="1" parent="FjR-XkZwSWkzs6hYQ35B-22">
          <mxGeometry x="0.5" y="0.5" width="4" height="4" relative="1" as="geometry">
            <mxPoint x="6" y="-2" as="offset" />
          </mxGeometry>
        </mxCell>
        <mxCell id="FjR-XkZwSWkzs6hYQ35B-29" value="correspondent:" style="text;html=1;resizable=0;autosize=1;align=center;verticalAlign=middle;points=[];fillColor=none;strokeColor=none;rounded=0;fontSize=14;fontStyle=3" vertex="1" parent="1">
          <mxGeometry x="116" y="260" width="120" height="20" as="geometry" />
        </mxCell>
        <mxCell id="FjR-XkZwSWkzs6hYQ35B-30" value="Data Entry" style="html=1;shadow=0;dashed=0;shape=mxgraph.bootstrap.rrect;rSize=5;strokeColor=none;strokeWidth=1;fillColor=#6C767D;fontColor=#FFFFFF;whiteSpace=wrap;align=center;verticalAlign=middle;spacingLeft=0;fontStyle=0;fontSize=14;spacing=5;fontFamily=Helvetica;" vertex="1" parent="1">
          <mxGeometry x="240" y="260" width="80" height="20" as="geometry" />
        </mxCell>
        <mxCell id="FjR-XkZwSWkzs6hYQ35B-31" value="Raw Data" style="html=1;shadow=0;dashed=0;shape=mxgraph.bootstrap.rrect;rSize=5;strokeColor=none;strokeWidth=1;fillColor=#6C767D;fontColor=#FFFFFF;whiteSpace=wrap;align=center;verticalAlign=middle;spacingLeft=0;fontStyle=0;fontSize=14;spacing=5;fontFamily=Helvetica;" vertex="1" parent="1">
          <mxGeometry x="360" y="260" width="80" height="20" as="geometry" />
        </mxCell>
        <mxCell id="FjR-XkZwSWkzs6hYQ35B-32" value="Origin" style="html=1;shadow=0;dashed=0;shape=mxgraph.bootstrap.rrect;rSize=5;strokeColor=none;strokeWidth=1;fillColor=#6C767D;fontColor=#FFFFFF;whiteSpace=wrap;align=center;verticalAlign=middle;spacingLeft=0;fontStyle=0;fontSize=14;spacing=5;fontFamily=Helvetica;" vertex="1" parent="1">
          <mxGeometry x="480" y="260" width="80" height="20" as="geometry" />
        </mxCell>
      </root>
    </mxGraphModel>
  </diagram>
</mxfile>
